# xmcd
#
# Track frame offsets:
#	150
#	18475
#	54690
#	81362
#	110210
#	139012
#
# Disc length: 2137 seconds
#
# Revision: 1
# Processed by: cddbd v1.5.2PL0 Copyright (c) Steve Scherf et al.
# Submitted via: audiograbber 1.83.01
#
DISCID=52085706
DTITLE=Daryl Hall - Stop Loving Me, Stop Loving You [CDS)
DYEAR=1993
DGENRE=Pop
TTITLE0=Abraham's Edited Remix
TTITLE1=Heart to Heart Vocal mix
TTITLE2=Heart to Heart Instrumental Mix
TTITLE3=Jeep Vocal mix
TTITLE4=Jeep Dub mix
TTITLE5=Album Version
EXTD=
EXTT0=
EXTT1=
EXTT2=
EXTT3=
EXTT4=
EXTT5=
PLAYORDER=
